<mxfile host="app.diagrams.net" modified="2021-12-03T08:40:50.059Z" agent="5.0 (Macintosh; Intel Mac OS X 10_15_7) AppleWebKit/537.36 (KHTML, like Gecko) Chrome/96.0.4664.55 Safari/537.36" etag="yAFipLnlJEzS2F1_DPPH" version="15.8.9" type="github">
  <diagram id="lz3DQxYuiB3XgL7iQ7OE" name="Page-1">
    <mxGraphModel dx="1255" dy="1923" grid="1" gridSize="10" guides="1" tooltips="1" connect="1" arrows="1" fold="1" page="1" pageScale="1" pageWidth="827" pageHeight="1169" math="0" shadow="0">
      <root>
        <mxCell id="0" />
        <mxCell id="1" parent="0" />
        <mxCell id="4k6AsUWjLdNENSSHRfF8-18" value="" style="edgeStyle=orthogonalEdgeStyle;rounded=0;orthogonalLoop=1;jettySize=auto;html=1;dashed=1;fontSize=12;strokeColor=#FF3333;" edge="1" parent="1" source="4k6AsUWjLdNENSSHRfF8-1" target="4k6AsUWjLdNENSSHRfF8-16">
          <mxGeometry relative="1" as="geometry" />
        </mxCell>
        <mxCell id="4k6AsUWjLdNENSSHRfF8-1" value="&lt;font style=&quot;font-size: 12px&quot;&gt;离线表&lt;/font&gt;" style="rounded=0;whiteSpace=wrap;html=1;" vertex="1" parent="1">
          <mxGeometry x="80" y="170" width="120" height="60" as="geometry" />
        </mxCell>
        <mxCell id="4k6AsUWjLdNENSSHRfF8-19" value="" style="edgeStyle=orthogonalEdgeStyle;rounded=0;orthogonalLoop=1;jettySize=auto;html=1;dashed=1;fontSize=12;strokeColor=#FF3333;" edge="1" parent="1" source="4k6AsUWjLdNENSSHRfF8-2" target="4k6AsUWjLdNENSSHRfF8-16">
          <mxGeometry relative="1" as="geometry" />
        </mxCell>
        <mxCell id="4k6AsUWjLdNENSSHRfF8-2" value="&lt;font style=&quot;font-size: 12px&quot;&gt;实时流水&lt;/font&gt;" style="rounded=0;whiteSpace=wrap;html=1;" vertex="1" parent="1">
          <mxGeometry x="80" y="360" width="120" height="60" as="geometry" />
        </mxCell>
        <mxCell id="4k6AsUWjLdNENSSHRfF8-14" value="" style="edgeStyle=orthogonalEdgeStyle;rounded=0;orthogonalLoop=1;jettySize=auto;html=1;fontSize=12;strokeColor=#FF3333;dashed=1;" edge="1" parent="1" source="4k6AsUWjLdNENSSHRfF8-4" target="4k6AsUWjLdNENSSHRfF8-5">
          <mxGeometry relative="1" as="geometry" />
        </mxCell>
        <mxCell id="4k6AsUWjLdNENSSHRfF8-4" value="Redis(主)" style="shape=cylinder3;whiteSpace=wrap;html=1;boundedLbl=1;backgroundOutline=1;size=15;fontSize=12;" vertex="1" parent="1">
          <mxGeometry x="540" y="120" width="60" height="80" as="geometry" />
        </mxCell>
        <mxCell id="4k6AsUWjLdNENSSHRfF8-15" value="" style="edgeStyle=orthogonalEdgeStyle;rounded=0;orthogonalLoop=1;jettySize=auto;html=1;fontSize=12;strokeColor=#FF3333;dashed=1;" edge="1" parent="1" source="4k6AsUWjLdNENSSHRfF8-5" target="4k6AsUWjLdNENSSHRfF8-6">
          <mxGeometry relative="1" as="geometry" />
        </mxCell>
        <mxCell id="4k6AsUWjLdNENSSHRfF8-5" value="Redis(从)" style="shape=cylinder3;whiteSpace=wrap;html=1;boundedLbl=1;backgroundOutline=1;size=15;fontSize=12;" vertex="1" parent="1">
          <mxGeometry x="540" y="260" width="60" height="80" as="geometry" />
        </mxCell>
        <mxCell id="4k6AsUWjLdNENSSHRfF8-6" value="Redis(从)" style="shape=cylinder3;whiteSpace=wrap;html=1;boundedLbl=1;backgroundOutline=1;size=15;fontSize=12;" vertex="1" parent="1">
          <mxGeometry x="540" y="400" width="60" height="80" as="geometry" />
        </mxCell>
        <mxCell id="4k6AsUWjLdNENSSHRfF8-13" value="" style="group" vertex="1" connectable="0" parent="1">
          <mxGeometry x="708" y="-89" width="119" height="89" as="geometry" />
        </mxCell>
        <mxCell id="4k6AsUWjLdNENSSHRfF8-7" value="" style="endArrow=classic;html=1;rounded=0;fontSize=12;strokeColor=#FF3333;dashed=1;" edge="1" parent="4k6AsUWjLdNENSSHRfF8-13">
          <mxGeometry width="50" height="50" relative="1" as="geometry">
            <mxPoint x="1" y="74" as="sourcePoint" />
            <mxPoint x="71" y="74" as="targetPoint" />
          </mxGeometry>
        </mxCell>
        <mxCell id="4k6AsUWjLdNENSSHRfF8-8" value="sync" style="text;html=1;strokeColor=none;fillColor=none;align=center;verticalAlign=middle;whiteSpace=wrap;rounded=0;fontSize=12;" vertex="1" parent="4k6AsUWjLdNENSSHRfF8-13">
          <mxGeometry x="59" y="59" width="60" height="30" as="geometry" />
        </mxCell>
        <mxCell id="4k6AsUWjLdNENSSHRfF8-9" value="" style="endArrow=classic;html=1;rounded=0;fontSize=12;strokeColor=#000000;dashed=1;" edge="1" parent="4k6AsUWjLdNENSSHRfF8-13">
          <mxGeometry width="50" height="50" relative="1" as="geometry">
            <mxPoint x="1" y="44" as="sourcePoint" />
            <mxPoint x="71" y="44" as="targetPoint" />
          </mxGeometry>
        </mxCell>
        <mxCell id="4k6AsUWjLdNENSSHRfF8-10" value="异步" style="text;html=1;strokeColor=none;fillColor=none;align=center;verticalAlign=middle;whiteSpace=wrap;rounded=0;fontSize=12;" vertex="1" parent="4k6AsUWjLdNENSSHRfF8-13">
          <mxGeometry x="59" y="29" width="60" height="30" as="geometry" />
        </mxCell>
        <mxCell id="4k6AsUWjLdNENSSHRfF8-11" value="" style="endArrow=classic;html=1;rounded=0;fontSize=12;strokeColor=#000000;" edge="1" parent="4k6AsUWjLdNENSSHRfF8-13">
          <mxGeometry width="50" height="50" relative="1" as="geometry">
            <mxPoint y="15" as="sourcePoint" />
            <mxPoint x="70" y="15" as="targetPoint" />
          </mxGeometry>
        </mxCell>
        <mxCell id="4k6AsUWjLdNENSSHRfF8-12" value="同步" style="text;html=1;strokeColor=none;fillColor=none;align=center;verticalAlign=middle;whiteSpace=wrap;rounded=0;fontSize=12;" vertex="1" parent="4k6AsUWjLdNENSSHRfF8-13">
          <mxGeometry x="58" width="60" height="30" as="geometry" />
        </mxCell>
        <mxCell id="4k6AsUWjLdNENSSHRfF8-20" value="" style="edgeStyle=orthogonalEdgeStyle;rounded=0;orthogonalLoop=1;jettySize=auto;html=1;dashed=1;fontSize=12;strokeColor=#FF3333;" edge="1" parent="1" source="4k6AsUWjLdNENSSHRfF8-16" target="4k6AsUWjLdNENSSHRfF8-17">
          <mxGeometry relative="1" as="geometry" />
        </mxCell>
        <mxCell id="4k6AsUWjLdNENSSHRfF8-16" value="ETL模块" style="rounded=0;whiteSpace=wrap;html=1;fontSize=12;" vertex="1" parent="1">
          <mxGeometry x="250" y="170" width="80" height="250" as="geometry" />
        </mxCell>
        <mxCell id="4k6AsUWjLdNENSSHRfF8-17" value="Sink模块" style="rounded=0;whiteSpace=wrap;html=1;fontSize=12;" vertex="1" parent="1">
          <mxGeometry x="380" y="170" width="80" height="250" as="geometry" />
        </mxCell>
        <mxCell id="4k6AsUWjLdNENSSHRfF8-21" value="" style="endArrow=classic;html=1;rounded=0;dashed=1;fontSize=12;strokeColor=#FF3333;exitX=1;exitY=0.5;exitDx=0;exitDy=0;entryX=0;entryY=0.5;entryDx=0;entryDy=0;entryPerimeter=0;" edge="1" parent="1" source="4k6AsUWjLdNENSSHRfF8-17" target="4k6AsUWjLdNENSSHRfF8-4">
          <mxGeometry width="50" height="50" relative="1" as="geometry">
            <mxPoint x="530" y="380" as="sourcePoint" />
            <mxPoint x="580" y="330" as="targetPoint" />
          </mxGeometry>
        </mxCell>
        <mxCell id="4k6AsUWjLdNENSSHRfF8-22" value="Redis(主)" style="shape=cylinder3;whiteSpace=wrap;html=1;boundedLbl=1;backgroundOutline=1;size=15;fontSize=12;" vertex="1" parent="1">
          <mxGeometry x="630" y="120" width="60" height="80" as="geometry" />
        </mxCell>
        <mxCell id="4k6AsUWjLdNENSSHRfF8-23" value="Redis(从)" style="shape=cylinder3;whiteSpace=wrap;html=1;boundedLbl=1;backgroundOutline=1;size=15;fontSize=12;" vertex="1" parent="1">
          <mxGeometry x="630" y="260" width="60" height="80" as="geometry" />
        </mxCell>
        <mxCell id="4k6AsUWjLdNENSSHRfF8-24" value="Redis(从)" style="shape=cylinder3;whiteSpace=wrap;html=1;boundedLbl=1;backgroundOutline=1;size=15;fontSize=12;" vertex="1" parent="1">
          <mxGeometry x="630" y="400" width="60" height="80" as="geometry" />
        </mxCell>
        <mxCell id="4k6AsUWjLdNENSSHRfF8-25" value="" style="edgeStyle=orthogonalEdgeStyle;rounded=0;orthogonalLoop=1;jettySize=auto;html=1;fontSize=12;strokeColor=#FF3333;dashed=1;exitX=0.5;exitY=1;exitDx=0;exitDy=0;exitPerimeter=0;entryX=0.5;entryY=0;entryDx=0;entryDy=0;entryPerimeter=0;" edge="1" parent="1" source="4k6AsUWjLdNENSSHRfF8-22" target="4k6AsUWjLdNENSSHRfF8-23">
          <mxGeometry relative="1" as="geometry">
            <mxPoint x="580" y="210" as="sourcePoint" />
            <mxPoint x="580" y="270" as="targetPoint" />
          </mxGeometry>
        </mxCell>
        <mxCell id="4k6AsUWjLdNENSSHRfF8-26" value="" style="edgeStyle=orthogonalEdgeStyle;rounded=0;orthogonalLoop=1;jettySize=auto;html=1;fontSize=12;strokeColor=#FF3333;dashed=1;entryX=0.5;entryY=0;entryDx=0;entryDy=0;entryPerimeter=0;exitX=0.5;exitY=1;exitDx=0;exitDy=0;exitPerimeter=0;" edge="1" parent="1" source="4k6AsUWjLdNENSSHRfF8-23" target="4k6AsUWjLdNENSSHRfF8-24">
          <mxGeometry relative="1" as="geometry">
            <mxPoint x="640" y="370" as="sourcePoint" />
            <mxPoint x="670" y="270" as="targetPoint" />
          </mxGeometry>
        </mxCell>
        <mxCell id="4k6AsUWjLdNENSSHRfF8-27" value="gz" style="text;html=1;strokeColor=none;fillColor=none;align=center;verticalAlign=middle;whiteSpace=wrap;rounded=0;fontSize=12;" vertex="1" parent="1">
          <mxGeometry x="540" y="70" width="60" height="30" as="geometry" />
        </mxCell>
        <mxCell id="4k6AsUWjLdNENSSHRfF8-28" value="sh" style="text;html=1;strokeColor=none;fillColor=none;align=center;verticalAlign=middle;whiteSpace=wrap;rounded=0;fontSize=12;" vertex="1" parent="1">
          <mxGeometry x="630" y="70" width="60" height="30" as="geometry" />
        </mxCell>
        <mxCell id="4k6AsUWjLdNENSSHRfF8-29" value="统一Client" style="rounded=0;whiteSpace=wrap;html=1;fontSize=12;" vertex="1" parent="1">
          <mxGeometry x="732.5" y="120" width="70" height="360" as="geometry" />
        </mxCell>
      </root>
    </mxGraphModel>
  </diagram>
</mxfile>
